<svg width="35" height="35" viewBox="0 0 35 35" fill="none" xmlns="http://www.w3.org/2000/svg">
<path d="M17.5 9.1C15.8386 9.1 14.2146 9.59265 12.8332 10.5157C11.4518 11.4387 10.3752 12.7506 9.73941 14.2855C9.10364 15.8204 8.93729 17.5093 9.2614 19.1388C9.58552 20.7682 10.3855 22.2649 11.5603 23.4397C12.7351 24.6145 14.2318 25.4145 15.8612 25.7386C17.4907 26.0627 19.1796 25.8964 20.7145 25.2606C22.2494 24.6248 23.5613 23.5482 24.4843 22.1668C25.4073 20.7854 25.9 19.1614 25.9 17.5C25.9 15.2722 25.015 13.1356 23.4397 11.5603C21.8644 9.985 19.7278 9.1 17.5 9.1ZM17.5 23.1C16.3924 23.1 15.3097 22.7716 14.3888 22.1562C13.4679 21.5409 12.7501 20.6663 12.3263 19.643C11.9024 18.6198 11.7915 17.4938 12.0076 16.4075C12.2237 15.3212 12.757 14.3234 13.5402 13.5402C14.3234 12.757 15.3212 12.2237 16.4075 12.0076C17.4938 11.7915 18.6198 11.9024 19.643 12.3263C20.6663 12.7501 21.5409 13.4679 22.1562 14.3888C22.7716 15.3097 23.1 16.3924 23.1 17.5C23.0954 18.9838 22.5039 20.4055 21.4547 21.4547C20.4055 22.5039 18.9838 23.0954 17.5 23.1ZM25.2 0H9.8C7.20088 0 4.70821 1.0325 2.87035 2.87035C1.0325 4.70821 0 7.20088 0 9.8V25.2C0 27.7991 1.0325 30.2918 2.87035 32.1296C4.70821 33.9675 7.20088 35 9.8 35H25.2C27.7991 35 30.2918 33.9675 32.1296 32.1296C33.9675 30.2918 35 27.7991 35 25.2V9.8C35 7.20088 33.9675 4.70821 32.1296 2.87035C30.2918 1.0325 27.7991 0 25.2 0ZM32.2 25.2C32.2 26.1193 32.0189 27.0295 31.6672 27.8788C31.3154 28.7281 30.7998 29.4997 30.1497 30.1497C29.4997 30.7998 28.7281 31.3154 27.8788 31.6672C27.0295 32.0189 26.1193 32.2 25.2 32.2H9.8C8.88075 32.2 7.9705 32.0189 7.12122 31.6672C6.27194 31.3154 5.50026 30.7998 4.85025 30.1497C4.20024 29.4997 3.68463 28.7281 3.33284 27.8788C2.98106 27.0295 2.8 26.1193 2.8 25.2V9.8C2.8 7.94348 3.5375 6.16301 4.85025 4.85025C6.16301 3.5375 7.94348 2.8 9.8 2.8H25.2C26.1193 2.8 27.0295 2.98106 27.8788 3.33284C28.7281 3.68463 29.4997 4.20024 30.1497 4.85025C30.7998 5.50026 31.3154 6.27194 31.6672 7.12122C32.0189 7.9705 32.2 8.88075 32.2 9.8V25.2ZM28.7 8.4C28.7 8.81534 28.5768 9.22135 28.3461 9.5667C28.1153 9.91204 27.7874 10.1812 27.4036 10.3401C27.0199 10.4991 26.5977 10.5407 26.1903 10.4596C25.783 10.3786 25.4088 10.1786 25.1151 9.88492C24.8214 9.59123 24.6214 9.21705 24.5403 8.80969C24.4593 8.40233 24.5009 7.98009 24.6599 7.59636C24.8188 7.21264 25.088 6.88466 25.4333 6.65391C25.7786 6.42316 26.1847 6.3 26.6 6.3C27.157 6.3 27.6911 6.52125 28.0849 6.91508C28.4787 7.3089 28.7 7.84305 28.7 8.4Z" fill="#F6F7F7"/>
</svg>
